# Blender v2.82 (sub 7) OBJ File: ''
# www.blender.org
mtllib rectangle.mtl
o Cube_Cube.001
v -8.651283 -0.796185 1.000000
v -8.651283 0.796185 1.000000
v -8.651283 -0.796185 -1.000000
v -8.651283 0.796185 -1.000000
v 8.651283 -0.796185 1.000000
v 8.651283 0.796185 1.000000
v 8.651283 -0.796185 -1.000000
v 8.651283 0.796185 -1.000000
v 0.000000 -0.796185 -1.000000
v 0.000000 0.796185 -1.000000
v 0.000000 -0.796185 1.000000
v 0.000000 0.796185 1.000000
v 4.325642 0.796185 -1.000000
v 4.325642 -0.796185 1.000000
v 4.325642 -0.796185 -1.000000
v 4.325642 0.796185 1.000000
v -4.325642 -0.796185 -1.000000
v -4.325642 0.796185 1.000000
v -4.325642 0.796185 -1.000000
v -4.325642 -0.796185 1.000000
v -2.162821 0.796185 -1.000000
v -2.162821 -0.796185 1.000000
v -2.162821 -0.796185 -1.000000
v -2.162821 0.796185 1.000000
v -6.488462 -0.796185 -1.000000
v -6.488462 0.796185 1.000000
v -6.488462 0.796185 -1.000000
v -6.488462 -0.796185 1.000000
v 2.162821 -0.796185 -1.000000
v 2.162821 0.796185 1.000000
v 2.162821 0.796185 -1.000000
v 2.162821 -0.796185 1.000000
v 6.488462 0.796185 -1.000000
v 6.488462 -0.796185 1.000000
v 6.488462 -0.796185 -1.000000
v 6.488462 0.796185 1.000000
v 7.569873 0.796185 -1.000000
v 7.569873 -0.796185 1.000000
v 7.569873 -0.796185 -1.000000
v 7.569873 0.796185 1.000000
v 5.407052 -0.796185 -1.000000
v 5.407052 0.796185 1.000000
v 5.407052 0.796185 -1.000000
v 5.407052 -0.796185 1.000000
v 3.244231 0.796185 -1.000000
v 3.244231 -0.796185 1.000000
v 3.244231 -0.796185 -1.000000
v 3.244231 0.796185 1.000000
v 1.081410 -0.796185 -1.000000
v 1.081410 0.796185 1.000000
v 1.081410 0.796185 -1.000000
v 1.081410 -0.796185 1.000000
v -1.081410 0.796185 -1.000000
v -1.081410 -0.796185 1.000000
v -1.081410 -0.796185 -1.000000
v -1.081410 0.796185 1.000000
v -3.244231 -0.796185 -1.000000
v -3.244231 0.796185 1.000000
v -3.244231 0.796185 -1.000000
v -3.244231 -0.796185 1.000000
v -5.407052 0.796185 -1.000000
v -5.407052 -0.796185 1.000000
v -5.407052 -0.796185 -1.000000
v -5.407052 0.796185 1.000000
v -7.569873 -0.796185 -1.000000
v -7.569873 0.796185 1.000000
v -7.569873 0.796185 -1.000000
v -7.569873 -0.796185 1.000000
vt 0.375000 0.000000
vt 0.625000 0.000000
vt 0.625000 0.250000
vt 0.375000 0.250000
vt 0.375000 0.484375
vt 0.625000 0.484375
vt 0.625000 0.500000
vt 0.375000 0.500000
vt 0.625000 0.750000
vt 0.375000 0.750000
vt 0.375000 0.984375
vt 0.625000 0.984375
vt 0.625000 1.000000
vt 0.375000 1.000000
vt 0.359375 0.500000
vt 0.359375 0.750000
vt 0.859375 0.500000
vt 0.875000 0.500000
vt 0.875000 0.750000
vt 0.859375 0.750000
vt 0.734375 0.500000
vt 0.750000 0.500000
vt 0.750000 0.750000
vt 0.734375 0.750000
vt 0.234375 0.500000
vt 0.250000 0.500000
vt 0.250000 0.750000
vt 0.234375 0.750000
vt 0.375000 0.859375
vt 0.625000 0.859375
vt 0.625000 0.875000
vt 0.375000 0.875000
vt 0.375000 0.359375
vt 0.625000 0.359375
vt 0.625000 0.375000
vt 0.375000 0.375000
vt 0.375000 0.796875
vt 0.625000 0.796875
vt 0.625000 0.812500
vt 0.375000 0.812500
vt 0.671875 0.500000
vt 0.687500 0.500000
vt 0.687500 0.750000
vt 0.671875 0.750000
vt 0.296875 0.500000
vt 0.312500 0.500000
vt 0.312500 0.750000
vt 0.296875 0.750000
vt 0.375000 0.421875
vt 0.625000 0.421875
vt 0.625000 0.437500
vt 0.375000 0.437500
vt 0.375000 0.296875
vt 0.625000 0.296875
vt 0.625000 0.312500
vt 0.375000 0.312500
vt 0.171875 0.500000
vt 0.187500 0.500000
vt 0.187500 0.750000
vt 0.171875 0.750000
vt 0.796875 0.500000
vt 0.812500 0.500000
vt 0.812500 0.750000
vt 0.796875 0.750000
vt 0.375000 0.921875
vt 0.625000 0.921875
vt 0.625000 0.937500
vt 0.375000 0.937500
vt 0.375000 0.890625
vt 0.625000 0.890625
vt 0.625000 0.906250
vt 0.375000 0.906250
vt 0.765625 0.500000
vt 0.781250 0.500000
vt 0.781250 0.750000
vt 0.765625 0.750000
vt 0.375000 0.328125
vt 0.625000 0.328125
vt 0.625000 0.343750
vt 0.375000 0.343750
vt 0.203125 0.500000
vt 0.218750 0.500000
vt 0.218750 0.750000
vt 0.203125 0.750000
vt 0.140625 0.500000
vt 0.156250 0.500000
vt 0.156250 0.750000
vt 0.140625 0.750000
vt 0.375000 0.265625
vt 0.625000 0.265625
vt 0.625000 0.281250
vt 0.375000 0.281250
vt 0.828125 0.500000
vt 0.843750 0.500000
vt 0.843750 0.750000
vt 0.828125 0.750000
vt 0.375000 0.953125
vt 0.625000 0.953125
vt 0.625000 0.968750
vt 0.375000 0.968750
vt 0.375000 0.390625
vt 0.625000 0.390625
vt 0.625000 0.406250
vt 0.375000 0.406250
vt 0.265625 0.500000
vt 0.281250 0.500000
vt 0.281250 0.750000
vt 0.265625 0.750000
vt 0.375000 0.828125
vt 0.625000 0.828125
vt 0.625000 0.843750
vt 0.375000 0.843750
vt 0.703125 0.500000
vt 0.718750 0.500000
vt 0.718750 0.750000
vt 0.703125 0.750000
vt 0.640625 0.500000
vt 0.656250 0.500000
vt 0.656250 0.750000
vt 0.640625 0.750000
vt 0.375000 0.765625
vt 0.625000 0.765625
vt 0.625000 0.781250
vt 0.375000 0.781250
vt 0.328125 0.500000
vt 0.343750 0.500000
vt 0.343750 0.750000
vt 0.328125 0.750000
vt 0.375000 0.453125
vt 0.625000 0.453125
vt 0.625000 0.468750
vt 0.375000 0.468750
vt 0.125000 0.500000
vt 0.125000 0.750000
vn -1.0000 0.0000 0.0000
vn 0.0000 0.0000 -1.0000
vn 1.0000 0.0000 0.0000
vn 0.0000 0.0000 1.0000
vn 0.0000 -1.0000 0.0000
vn 0.0000 1.0000 0.0000
usemtl None
s off
f 1/1/1 2/2/1 4/3/1 3/4/1
f 39/5/2 37/6/2 8/7/2 7/8/2
f 7/8/3 8/7/3 6/9/3 5/10/3
f 68/11/4 66/12/4 2/13/4 1/14/4
f 39/15/5 7/8/5 5/10/5 38/16/5
f 67/17/6 4/18/6 2/19/6 66/20/6
f 51/21/6 10/22/6 12/23/6 50/24/6
f 55/25/5 9/26/5 11/27/5 54/28/5
f 52/29/4 50/30/4 12/31/4 11/32/4
f 55/33/2 53/34/2 10/35/2 9/36/2
f 44/37/4 42/38/4 16/39/4 14/40/4
f 43/41/6 13/42/6 16/43/6 42/44/6
f 47/45/5 15/46/5 14/47/5 46/48/5
f 47/49/2 45/50/2 13/51/2 15/52/2
f 63/53/2 61/54/2 19/55/2 17/56/2
f 63/57/5 17/58/5 20/59/5 62/60/5
f 59/61/6 19/62/6 18/63/6 58/64/6
f 60/65/4 58/66/4 18/67/4 20/68/4
f 54/69/4 56/70/4 24/71/4 22/72/4
f 53/73/6 21/74/6 24/75/6 56/76/6
f 57/77/2 59/78/2 21/79/2 23/80/2
f 57/81/5 23/82/5 22/83/5 60/84/5
f 65/85/5 25/86/5 28/87/5 68/88/5
f 65/89/2 67/90/2 27/91/2 25/92/2
f 61/93/6 27/94/6 26/95/6 64/96/6
f 62/97/4 64/98/4 26/99/4 28/100/4
f 49/101/2 51/102/2 31/103/2 29/104/2
f 49/105/5 29/106/5 32/107/5 52/108/5
f 46/109/4 48/110/4 30/111/4 32/112/4
f 45/113/6 31/114/6 30/115/6 48/116/6
f 37/117/6 33/118/6 36/119/6 40/120/6
f 38/121/4 40/122/4 36/123/4 34/124/4
f 41/125/5 35/126/5 34/127/5 44/128/5
f 41/129/2 43/130/2 33/131/2 35/132/2
f 5/10/4 6/9/4 40/122/4 38/121/4
f 8/7/6 37/117/6 40/120/6 6/9/6
f 35/126/5 39/15/5 38/16/5 34/127/5
f 35/132/2 33/131/2 37/6/2 39/5/2
f 15/52/2 13/51/2 43/130/2 41/129/2
f 15/46/5 41/125/5 44/128/5 14/47/5
f 33/118/6 43/41/6 42/44/6 36/119/6
f 34/124/4 36/123/4 42/38/4 44/37/4
f 13/42/6 45/113/6 48/116/6 16/43/6
f 14/40/4 16/39/4 48/110/4 46/109/4
f 29/104/2 31/103/2 45/50/2 47/49/2
f 29/106/5 47/45/5 46/48/5 32/107/5
f 9/26/5 49/105/5 52/108/5 11/27/5
f 9/36/2 10/35/2 51/102/2 49/101/2
f 32/112/4 30/111/4 50/30/4 52/29/4
f 31/114/6 51/21/6 50/24/6 30/115/6
f 10/22/6 53/73/6 56/76/6 12/23/6
f 11/32/4 12/31/4 56/70/4 54/69/4
f 23/80/2 21/79/2 53/34/2 55/33/2
f 23/82/5 55/25/5 54/28/5 22/83/5
f 17/58/5 57/81/5 60/84/5 20/59/5
f 17/56/2 19/55/2 59/78/2 57/77/2
f 22/72/4 24/71/4 58/66/4 60/65/4
f 21/74/6 59/61/6 58/64/6 24/75/6
f 20/68/4 18/67/4 64/98/4 62/97/4
f 19/62/6 61/93/6 64/96/6 18/63/6
f 25/86/5 63/57/5 62/60/5 28/87/5
f 25/92/2 27/91/2 61/54/2 63/53/2
f 3/4/2 4/3/2 67/90/2 65/89/2
f 3/133/5 65/85/5 68/88/5 1/134/5
f 27/94/6 67/17/6 66/20/6 26/95/6
f 28/100/4 26/99/4 66/12/4 68/11/4
